<svg width="1200" height="630" viewBox="0 0 1200 630" xmlns="http://www.w3.org/2000/svg">
  <defs>
    <linearGradient id="bg" x1="0" y1="0" x2="1" y2="1">
      <stop offset="0%" stop-color="#FFF7F9"/>
      <stop offset="60%" stop-color="#FDE8EC"/>
      <stop offset="100%" stop-color="#FBCFD6"/>
    </linearGradient>
    <linearGradient id="accent" x1="0" y1="0" x2="1" y2="0">
      <stop offset="0%" stop-color="#F02842"/>
      <stop offset="100%" stop-color="#E31837"/>
    </linearGradient>
  </defs>
  <rect width="1200" height="630" fill="url(#bg)"/>

  <!-- Decorative background shapes -->
  <circle cx="1050" cy="120" r="180" fill="#E31837" opacity="0.08"/>
  <circle cx="150" cy="520" r="140" fill="#E31837" opacity="0.08"/>
  <circle cx="1100" cy="520" r="90" fill="#F02842" opacity="0.12"/>

  <!-- Top accent bar -->
  <rect x="0" y="0" width="1200" height="10" fill="url(#accent)"/>

  <!-- Centered mascot -->
  <g transform="translate(600, 90)">
    <g transform="translate(-110, 0)">
      <circle cx="55" cy="55" r="48" fill="#10415D"/>
      <circle cx="165" cy="55" r="48" fill="#10415D"/>
      <ellipse cx="62" cy="42" rx="20" ry="15" fill="#FFFFFE" transform="rotate(42 62 42)"/>
      <ellipse cx="158" cy="42" rx="20" ry="15" fill="#FFFFFE" transform="rotate(-42 158 42)"/>
      <path d="M -8 150 L 228 150 L 215 175 L 5 175 Z" fill="#E31837"/>
      <path d="M 90 180 L 130 180 L 110 215 Z" fill="#E31837"/>
    </g>
  </g>

  <!-- Brand name centered -->
  <text x="600" y="380" text-anchor="middle" font-family="Plus Jakarta Sans, Segoe UI, sans-serif" font-size="68" font-weight="800" fill="#10415D" letter-spacing="-2">IELTS Maestro</text>

  <!-- Eyebrow -->
  <text x="600" y="418" text-anchor="middle" font-family="Space Mono, Menlo, monospace" font-size="16" font-weight="700" fill="#E31837" letter-spacing="4">PREP LIKE A PRO</text>

  <!-- Headline centered -->
  <text x="600" y="480" text-anchor="middle" font-family="Inter, Segoe UI, sans-serif" font-size="30" font-weight="700" fill="#10415D">Complete AI IELTS Band Score Coach <tspan fill="#E31837">in Your Pocket.</tspan></text>

  <!-- Subhead centered -->
  <text x="600" y="540" text-anchor="middle" font-family="Inter, Segoe UI, sans-serif" font-size="20" font-weight="500" fill="#526B7E">Academic + General Training · Real-time AI scoring on 4 band descriptors</text>

  <!-- Domain centered -->
  <text x="600" y="595" text-anchor="middle" font-family="Space Mono, Menlo, monospace" font-size="18" font-weight="700" fill="#E31837" letter-spacing="2">PREPMAESTRO.COM/APPS/IELTS-MAESTRO</text>
</svg>
